<?xml version="1.0" standalone="no"?>
<!DOCTYPE svg PUBLIC "-//W3C//DTD SVG 20010904//EN"
 "http://www.w3.org/TR/2001/REC-SVG-20010904/DTD/svg10.dtd">
<svg version="1.0" xmlns="http://www.w3.org/2000/svg"
 width="700.000000pt" height="700.000000pt" viewBox="0 0 700.000000 700.000000"
 preserveAspectRatio="xMidYMid meet">
<metadata>
Created by potrace 1.14, written by Peter Selinger 2001-2017
</metadata>
<g transform="translate(0.000000,700.000000) scale(0.100000,-0.100000)"
fill="#000000" stroke="none">
<path d="M665 5675 c-25 -24 -25 -25 -25 -218 l0 -194 -67 -5 c-112 -8 -203
-70 -254 -174 l-24 -49 0 -1625 0 -1625 21 -46 c31 -67 87 -124 152 -156 l57
-28 1025 -5 1025 -5 85 -44 c374 -193 826 -249 1249 -155 150 34 260 73 401
142 l115 57 1025 5 1025 5 57 28 c65 32 121 89 152 156 l21 46 0 1845 0 1845
-27 51 c-15 28 -50 72 -78 97 -94 84 121 78 -2305 75 l-2160 -3 -51 -27 c-93
-49 -156 -139 -170 -246 -10 -80 -60 -141 -126 -156 l-28 -6 0 195 c0 195 0
196 -25 220 l-24 25 -511 0 -511 0 -24 -25z m5812 -151 c15 -11 38 -36 51 -54
l22 -33 0 -518 0 -519 -814 0 -814 0 -99 98 c-391 389 -930 589 -1466 544
-458 -40 -859 -224 -1180 -544 l-99 -98 -814 0 -814 0 0 301 c0 286 1 303 20
335 12 18 40 42 64 53 41 21 56 21 662 21 701 0 676 -3 764 77 57 51 94 116
104 183 11 71 25 105 50 129 56 53 -59 50 2218 48 l2117 -2 28 -21z m-2762
-645 c122 -15 288 -58 415 -108 363 -142 669 -409 872 -762 161 -282 243 -672
209 -994 -26 -237 -75 -407 -176 -610 -424 -846 -1451 -1191 -2297 -770 -468
233 -812 673 -918 1177 -44 206 -49 436 -16 638 100 608 521 1119 1099 1334
110 41 268 81 372 95 101 12 336 13 440 0z m-1765 -644 c0 -2 -18 -33 -41 -67
-90 -138 -183 -364 -233 -563 -47 -188 -60 -491 -31 -694 46 -313 172 -615
359 -865 68 -90 217 -248 280 -296 25 -19 45 -38 46 -43 0 -4 -400 -6 -889 -5
l-889 3 -39 31 c-21 17 -44 42 -50 55 -10 19 -13 294 -13 1237 l0 1212 750 0
c413 0 750 -2 750 -5z m4600 -1209 l0 -1213 -22 -33 c-13 -18 -36 -43 -51 -54
-28 -21 -33 -21 -919 -24 l-890 -3 129 128 c125 124 212 228 284 343 142 225
235 477 274 741 29 203 16 506 -31 694 -50 199 -143 425 -233 563 -23 34 -41
65 -41 67 0 3 338 5 750 5 l750 0 0 -1214z"/>
<path d="M5265 5218 c-43 -25 -44 -34 -45 -275 0 -218 1 -234 19 -252 11 -11
35 -23 53 -26 18 -3 229 -5 469 -3 413 3 438 4 458 22 20 18 21 28 21 256 0
219 -1 240 -19 261 l-19 24 -459 2 c-334 2 -463 0 -478 -9z m825 -273 l0 -125
-357 2 -358 3 -3 123 -3 122 361 0 360 0 0 -125z"/>
<path d="M680 4837 c-32 -16 -47 -58 -34 -94 18 -53 18 -53 567 -50 l509 2 19
24 c24 30 24 72 0 102 l-19 24 -509 2 c-395 2 -514 0 -533 -10z"/>
<path d="M3250 4755 c-677 -114 -1201 -627 -1326 -1300 -26 -136 -26 -429 -1
-565 22 -118 83 -302 137 -414 108 -227 335 -489 545 -628 551 -367 1236 -367
1790 -1 138 92 337 291 431 433 123 185 203 379 246 593 30 151 32 432 4 582
-123 664 -646 1183 -1304 1296 -134 22 -401 25 -522 4z m297 -660 c29 -20 37
-59 18 -95 -17 -33 -27 -36 -130 -45 -104 -9 -179 -31 -280 -80 -207 -101
-358 -286 -415 -510 -11 -43 -20 -99 -20 -124 0 -63 -17 -119 -40 -131 -35
-19 -77 -12 -100 18 -20 24 -22 34 -16 108 20 241 116 445 287 610 115 110
234 180 376 224 135 41 281 52 320 25z"/>
<path d="M802 2324 c-221 -110 -138 -438 109 -436 167 1 276 175 205 328 -56
120 -194 168 -314 108z m151 -144 c44 -35 43 -93 -2 -127 -43 -33 -121 4 -121
58 0 75 67 113 123 69z"/>
<path d="M5659 2331 c-24 -19 -24 -22 -24 -210 0 -183 1 -191 22 -212 32 -32
80 -30 110 6 24 27 24 30 21 212 -3 180 -4 185 -27 204 -30 24 -72 24 -102 0z"/>
<path d="M5942 2327 c-21 -22 -22 -32 -22 -204 0 -100 3 -189 6 -198 10 -26
63 -45 93 -34 47 19 50 32 51 225 0 169 -1 183 -21 208 -27 34 -77 36 -107 3z"/>
<path d="M6225 2325 c-25 -24 -25 -26 -25 -204 0 -174 1 -181 23 -207 30 -34
83 -36 109 -3 16 19 18 45 18 210 0 176 -1 190 -20 209 -28 28 -75 26 -105 -5z"/>
</g>
</svg>
